<?xml version="1.0" encoding="UTF-8"?>
<svg xmlns="http://www.w3.org/2000/svg" xmlns:xlink="http://www.w3.org/1999/xlink" width="48pt" height="48pt" viewBox="0 0 48 48" version="1.1">
<g id="surface1028760">
<path style=" stroke:none;fill-rule:nonzero;fill:rgb(0%,0%,0%);fill-opacity:1;" d="M 0 24 C 0 10.746094 10.746094 0 24 0 C 37.253906 0 48 10.746094 48 24 C 48 37.253906 37.253906 48 24 48 C 10.746094 48 0 37.253906 0 24 Z M 24 47.039062 C 36.726562 47.039062 47.039062 36.726562 47.039062 24 C 47.039062 11.273438 36.726562 0.960938 24 0.960938 C 11.273438 0.960938 0.960938 11.273438 0.960938 24 C 0.960938 36.726562 11.273438 47.039062 24 47.039062 Z M 24 47.039062 "/>
<path style=" stroke:none;fill-rule:nonzero;fill:rgb(0%,0%,0%);fill-opacity:1;" d="M 22.503906 8.800781 L 21.347656 13.910156 L 17.292969 18.410156 C 16.800781 18.960938 16.527344 19.671875 16.527344 20.410156 L 16.527344 34.210938 C 16.527344 35.863281 17.863281 37.199219 19.515625 37.199219 L 31.519531 37.199219 C 32.628906 37.199219 33.628906 36.546875 34.082031 35.535156 L 38.566406 25.4375 C 38.816406 24.878906 38.949219 24.273438 38.949219 23.660156 L 38.949219 22.253906 C 38.949219 20.609375 37.601562 19.261719 35.957031 19.261719 L 25.496094 19.261719 C 25.496094 19.261719 26.988281 15.71875 26.988281 13.078125 C 26.988281 8.980469 22.503906 8.800781 22.503906 8.800781 Z M 9.050781 19.261719 L 9.050781 37.199219 L 13.535156 37.199219 L 13.535156 19.261719 Z M 9.050781 19.261719 "/>
</g>
</svg>
