<?xml version="1.0" encoding="UTF-8"?>
<!DOCTYPE svg PUBLIC "-//W3C//DTD SVG 1.1//EN" "http://www.w3.org/Graphics/SVG/1.1/DTD/svg11.dtd">
<!-- Creator: CorelDRAW X7 -->
<svg xmlns="http://www.w3.org/2000/svg" xml:space="preserve" width="90mm" height="53mm" version="1.1" style="shape-rendering:geometricPrecision; text-rendering:geometricPrecision; image-rendering:optimizeQuality; fill-rule:evenodd; clip-rule:evenodd"
viewBox="0 0 9000 5300"
 xmlns:xlink="http://www.w3.org/1999/xlink">
 <defs>
  <style type="text/css">
   <![CDATA[
    .fil1 {fill:lime}
    .fil0 {fill:#FF781F}
    .fil2 {fill:black;fill-rule:nonzero}
   ]]>
  </style>
 </defs>
 <g id="Layer_x0020_1">
  <metadata id="CorelCorpID_0Corel-Layer"/>
  <path class="fil0" d="M1948 2299c0,-133 75,-250 192,-250l48 0c254,0 252,480 0,480l-48 0c-109,0 -192,-118 -192,-230zm5553 -288c80,0 190,10 192,125l-336 0c18,-76 92,-125 144,-125zm-518 230c0,224 29,367 210,510 188,149 516,133 694,10 58,-41 163,-129 180,-203l-268 -144c-183,273 -448,130 -451,-29l738 0c0,-209 0,-317 -139,-494 -68,-85 -225,-168 -340,-168 -152,0 -267,-5 -400,99 -118,92 -224,239 -224,419zm-853 48c0,-121 92,-240 182,-240l58 0c256,0 256,480 0,480 -75,0 -127,1 -189,-81 -28,-37 -51,-98 -51,-159zm-355 -10c0,158 43,307 113,395 139,174 360,231 555,140 26,-13 52,-27 72,-44 28,-23 29,-40 66,-49 0,194 -36,278 -240,278 -87,0 -157,-36 -173,-106l-345 0 0 39c0,208 211,355 422,355 249,0 484,9 620,-262 85,-169 51,-429 51,-640 0,-153 0,-307 0,-460 -123,-11 -205,-42 -294,-90 -197,-106 -162,-112 -387,-112 -252,0 -460,269 -460,556zm-1046 -354l-47 0 0 920 345 0 0 -642c0,-144 84,-173 192,-173 88,0 134,100 134,192l0 623 345 0 0 -805c0,-87 -75,-197 -128,-236 -111,-84 -296,-110 -428,-33 -39,23 -74,50 -118,74 -82,44 -174,80 -295,80zm-700 604l-48 0c-253,0 -254,-480 0,-480l48 0c257,0 249,480 0,480zm-594 -288c0,183 9,301 119,447 127,170 389,215 555,122 79,-44 84,-64 122,-89l0 124 335 0 0 -920c-182,-43 -87,11 -291,-93 -207,-106 -143,-109 -390,-109 -221,0 -450,256 -450,518zm-518 -355l-106 0 0 959 346 0 0 -556c0,-60 14,-124 42,-159 58,-71 159,-60 226,-50l0 -338c-295,0 -270,144 -508,144zm-1324 355c0,185 17,320 151,453 216,216 617,222 835,5 251,-250 203,-762 -145,-925 -251,-117 -658,-56 -792,257 -24,56 -49,133 -49,210z"/>
  <path class="fil1" d="M4672 1694l0 135c212,0 390,-22 499,-240 68,-138 89,-337 105,-528 -39,1 -105,46 -156,74 -71,39 -183,102 -239,146 -116,91 -209,209 -209,413z"/>
  <path class="fil0" d="M4480 1829l96 0c0,-275 -36,-299 -270,-440 -32,-19 -105,-71 -133,-78 0,144 39,379 153,460 32,23 99,58 154,58z"/>
  <path class="fil2" d="M1952 3065l0 540 50 0c128,0 212,-11 212,-261 0,-274 -97,-279 -181,-279l-81 0zm186 279c0,92 5,204 -114,200l0 -418c121,-8 114,135 114,218zm467 45c0,-27 -3,-91 39,-91 41,0 41,64 41,91l-80 0zm149 49l0 -11c0,-75 -11,-190 -110,-190 -99,0 -108,116 -108,190 0,77 10,184 111,184 76,0 105,-61 105,-128l-62 0c0,28 -7,68 -43,68 -43,0 -42,-83 -42,-113l149 0zm461 -185c-20,-11 -38,-16 -61,-16 -58,0 -97,42 -97,99 0,101 113,105 113,169 0,28 -16,46 -45,46 -23,0 -39,-9 -56,-23l0 66c20,12 35,17 59,17 64,0 104,-44 104,-107 0,-104 -112,-107 -114,-168 0,-24 21,-38 46,-38 17,0 38,8 51,19l0 -64zm400 -10l-67 0 0 362 67 0 0 -362zm-33 -64c24,0 45,-20 45,-46 0,-24 -21,-44 -45,-44 -25,0 -45,20 -45,44 0,26 20,46 45,46zm512 247c0,29 8,125 -41,125 -49,0 -45,-101 -45,-129 0,-25 -4,-124 43,-124 43,0 43,99 43,128zm68 -183l-68 0 0 42 -2 1c-14,-28 -30,-49 -66,-49 -88,0 -86,132 -86,190 0,61 2,184 88,184 33,2 55,-19 64,-49l2 0 0 61c0,33 4,76 -41,76 -34,0 -45,-28 -43,-54l-65 0 0 10c0,67 41,105 106,105 72,0 111,-23 111,-152l0 -365zm402 0l-67 0 0 362 67 0 0 -226c0,-30 -3,-81 41,-81 36,0 40,32 40,57l0 250 68 0 0 -248c0,-56 -3,-120 -74,-120 -18,0 -33,5 -45,13 -11,8 -21,20 -28,35l-2 0 0 -42zm542 146c0,-27 -3,-91 39,-91 41,0 41,64 41,91l-80 0zm149 49l0 -11c0,-75 -12,-190 -110,-190 -100,0 -108,116 -108,190 0,77 9,184 110,184 76,0 106,-61 106,-128l-63 0c0,28 -6,68 -42,68 -44,0 -42,-83 -42,-113l149 0zm391 -195l-67 0 0 362 68 0 0 -228c0,-46 16,-74 66,-74l11 1 0 -67c-37,0 -61,19 -76,51l-2 0 0 -45z"/>
 </g>
</svg>
